
<svg width="200" height="60" viewBox="0 0 200 60" fill="none" xmlns="http://www.w3.org/2000/svg">
  <path d="M40 10C51.0457 10 60 18.9543 60 30C60 41.0457 51.0457 50 40 50C28.9543 50 20 41.0457 20 30C20 18.9543 28.9543 10 40 10Z" fill="#EC4EB3"/>
  <path d="M65 23H75.5C76.4 23 77.2 23.2 77.9 23.6C78.6 24 79.1667 24.5333 79.6 25.2C80.0333 25.8667 80.25 26.6 80.25 27.4C80.25 28.0667 80.1167 28.6833 79.85 29.25C79.5833 29.8167 79.2 30.2833 78.7 30.65C78.2 31.0167 77.6167 31.2667 76.95 31.4V31.5C77.7167 31.6 78.3667 31.8667 78.9 32.3C79.4333 32.7333 79.8333 33.2833 80.1 33.95C80.3833 34.6167 80.525 35.35 80.525 36.15C80.525 37.0833 80.2917 37.9167 79.825 38.65C79.3583 39.3833 78.6917 39.9667 77.825 40.4C76.9583 40.8333 75.9333 41.05 74.75 41.05H65V23ZM74.75 30.8C75.55 30.8 76.1833 30.5833 76.65 30.15C77.1167 29.7167 77.35 29.15 77.35 28.45C77.35 27.75 77.1167 27.1667 76.65 26.7C76.2 26.2333 75.5667 26 74.75 26H67.95V30.8H74.75ZM75 38C75.9 38 76.6167 37.75 77.15 37.25C77.6833 36.75 77.95 36.0833 77.95 35.25C77.95 34.4167 77.6833 33.75 77.15 33.25C76.6167 32.75 75.9 32.5 75 32.5H67.95V38H75Z" fill="#1A1A1A"/>
  <path d="M87 23H89.75V38.2H100V41H87V23Z" fill="#1A1A1A"/>
  <path d="M108 23H110.75V32.85L119.85 23H123.25L115.25 31.5L123.4 41H119.8L113.15 33.1L110.75 35.7V41H108V23Z" fill="#1A1A1A"/>
  <path d="M128 23H130.85L136.15 36.15L141.45 23H144.15L137.45 41H134.7L128 23Z" fill="#1A1A1A"/>
  <path d="M144 23H146.75V38.2H157V41H144V23Z" fill="#1A1A1A"/>
  <path d="M159 41V23H161.75V41H159Z" fill="#1A1A1A"/>
  <path d="M170.296 33.816C169.72 33.76 169.144 33.632 168.568 33.432C167.992 33.216 167.464 32.928 166.984 32.568C166.504 32.208 166.12 31.752 165.832 31.2C165.544 30.648 165.4 29.992 165.4 29.232C165.4 28.504 165.552 27.864 165.856 27.312C166.16 26.76 166.592 26.304 167.152 25.944C167.712 25.568 168.36 25.288 169.096 25.104C169.832 24.92 170.608 24.828 171.424 24.828C172.24 24.828 173 24.912 173.704 25.08C174.424 25.232 175.032 25.44 175.528 25.704L174.616 28.116C174.2 27.9 173.72 27.724 173.176 27.588C172.648 27.452 172.08 27.384 171.472 27.384C170.512 27.384 169.752 27.548 169.192 27.876C168.632 28.204 168.352 28.692 168.352 29.34C168.352 29.836 168.552 30.224 168.952 30.504C169.352 30.784 169.896 30.964 170.584 31.044C171.272 31.124 172.04 31.212 172.888 31.308C173.736 31.388 174.504 31.548 175.192 31.788C175.88 32.028 176.424 32.4 176.824 32.904C177.24 33.408 177.448 34.12 177.448 35.04C177.448 35.768 177.288 36.408 176.968 36.96C176.648 37.512 176.184 37.984 175.576 38.376C174.984 38.752 174.28 39.04 173.464 39.24C172.664 39.424 171.8 39.516 170.872 39.516C170.104 39.516 169.376 39.46 168.688 39.348C167.999 39.236 167.384 39.088 166.84 38.904C166.296 38.72 165.84 38.512 165.472 38.28L166.384 35.652C166.752 35.844 167.16 36.02 167.608 36.18C168.072 36.324 168.568 36.444 169.096 36.54C169.64 36.636 170.192 36.684 170.752 36.684C171.376 36.684 171.944 36.636 172.456 36.54C172.984 36.428 173.408 36.264 173.728 36.048C174.064 35.816 174.232 35.504 174.232 35.112C174.232 34.664 174.032 34.328 173.632 34.104C173.232 33.864 172.688 33.7 172 33.612C171.312 33.508 170.552 33.416 169.72 33.336C170.024 33.368 170.264 33.384 170.44 33.384C170.392 33.368 170.344 33.848 170.296 33.816Z" fill="#1A1A1A" style="font-family: 'Great Vibes', cursive;"/>
  <path d="M181.012 38.832C181.012 37.716 181.236 36.732 181.684 35.88C182.132 35.024 182.776 34.36 183.616 33.888C184.456 33.412 185.44 33.172 186.568 33.172C187.264 33.172 188.02 33.264 188.836 33.448C189.652 33.628 190.252 33.884 190.636 34.216V37.48C190.252 37.36 189.832 37.26 189.376 37.18C188.92 37.096 188.456 37.056 187.984 37.056C187.072 37.056 186.412 37.196 186.004 37.476C185.596 37.752 185.392 38.14 185.392 38.64C185.392 39.14 185.604 39.54 186.028 39.84C186.468 40.136 187.14 40.284 188.044 40.284C188.572 40.284 189.064 40.26 189.52 40.212C189.976 40.168 190.46 40.064 190.972 39.9V36.496H194.308V39.42C193.984 39.556 193.608 39.692 193.18 39.828C192.764 39.964 192.308 40.088 191.812 40.2C191.332 40.308 190.82 40.396 190.276 40.464C189.748 40.532 189.208 40.58 188.656 40.608C188.104 40.636 187.56 40.652 187.024 40.652C185.656 40.652 184.508 40.428 183.58 39.98C182.652 39.532 181.964 38.924 181.516 38.156C181.18 37.576 181.012 36.984 181.012 36.38V38.832Z" fill="#1A1A1A" style="font-family: 'Great Vibes', cursive;"/>
</svg>
